<mxfile host="app.diagrams.net" modified="2023-04-12T14:30:17.738Z" agent="Mozilla/5.0 (Macintosh; Intel Mac OS X 10_15_7) AppleWebKit/605.1.15 (KHTML, like Gecko) Version/15.3 Safari/605.1.15" etag="Fx0Ceh2XrXNv34GpTYTk" version="21.1.5" type="github">
  <diagram name="Страница 1" id="5dnEvHJj14CrQweiYWZ-">
    <mxGraphModel dx="2021" dy="797" grid="1" gridSize="10" guides="1" tooltips="1" connect="1" arrows="1" fold="1" page="1" pageScale="1" pageWidth="827" pageHeight="1169" math="0" shadow="0">
      <root>
        <mxCell id="0" />
        <mxCell id="1" parent="0" />
        <mxCell id="cxhVmi1dmJNvSdozs-qM-10" value="Cat" style="swimlane;fontStyle=1;align=center;verticalAlign=top;childLayout=stackLayout;horizontal=1;startSize=26;horizontalStack=0;resizeParent=1;resizeParentMax=0;resizeLast=0;collapsible=1;marginBottom=0;whiteSpace=wrap;html=1;" parent="1" vertex="1">
          <mxGeometry x="-200" y="568" width="160" height="34" as="geometry" />
        </mxCell>
        <mxCell id="cxhVmi1dmJNvSdozs-qM-12" value="" style="line;strokeWidth=1;fillColor=none;align=left;verticalAlign=middle;spacingTop=-1;spacingLeft=3;spacingRight=3;rotatable=0;labelPosition=right;points=[];portConstraint=eastwest;strokeColor=inherit;" parent="cxhVmi1dmJNvSdozs-qM-10" vertex="1">
          <mxGeometry y="26" width="160" height="8" as="geometry" />
        </mxCell>
        <mxCell id="cxhVmi1dmJNvSdozs-qM-14" value="Hamster" style="swimlane;fontStyle=1;align=center;verticalAlign=top;childLayout=stackLayout;horizontal=1;startSize=26;horizontalStack=0;resizeParent=1;resizeParentMax=0;resizeLast=0;collapsible=1;marginBottom=0;whiteSpace=wrap;html=1;" parent="1" vertex="1">
          <mxGeometry x="-100" y="610" width="160" height="34" as="geometry" />
        </mxCell>
        <mxCell id="cxhVmi1dmJNvSdozs-qM-16" value="" style="line;strokeWidth=1;fillColor=none;align=left;verticalAlign=middle;spacingTop=-1;spacingLeft=3;spacingRight=3;rotatable=0;labelPosition=right;points=[];portConstraint=eastwest;strokeColor=inherit;" parent="cxhVmi1dmJNvSdozs-qM-14" vertex="1">
          <mxGeometry y="26" width="160" height="8" as="geometry" />
        </mxCell>
        <mxCell id="cxhVmi1dmJNvSdozs-qM-18" value="Dog" style="swimlane;fontStyle=1;align=center;verticalAlign=top;childLayout=stackLayout;horizontal=1;startSize=26;horizontalStack=0;resizeParent=1;resizeParentMax=0;resizeLast=0;collapsible=1;marginBottom=0;whiteSpace=wrap;html=1;" parent="1" vertex="1">
          <mxGeometry x="30" y="560" width="160" height="34" as="geometry" />
        </mxCell>
        <mxCell id="cxhVmi1dmJNvSdozs-qM-20" value="" style="line;strokeWidth=1;fillColor=none;align=left;verticalAlign=middle;spacingTop=-1;spacingLeft=3;spacingRight=3;rotatable=0;labelPosition=right;points=[];portConstraint=eastwest;strokeColor=inherit;" parent="cxhVmi1dmJNvSdozs-qM-18" vertex="1">
          <mxGeometry y="26" width="160" height="8" as="geometry" />
        </mxCell>
        <mxCell id="cxhVmi1dmJNvSdozs-qM-22" value="Donkey" style="swimlane;fontStyle=1;align=center;verticalAlign=top;childLayout=stackLayout;horizontal=1;startSize=26;horizontalStack=0;resizeParent=1;resizeParentMax=0;resizeLast=0;collapsible=1;marginBottom=0;whiteSpace=wrap;html=1;" parent="1" vertex="1">
          <mxGeometry x="430" y="568" width="160" height="34" as="geometry" />
        </mxCell>
        <mxCell id="cxhVmi1dmJNvSdozs-qM-24" value="" style="line;strokeWidth=1;fillColor=none;align=left;verticalAlign=middle;spacingTop=-1;spacingLeft=3;spacingRight=3;rotatable=0;labelPosition=right;points=[];portConstraint=eastwest;strokeColor=inherit;" parent="cxhVmi1dmJNvSdozs-qM-22" vertex="1">
          <mxGeometry y="26" width="160" height="8" as="geometry" />
        </mxCell>
        <mxCell id="cxhVmi1dmJNvSdozs-qM-26" value="Camel" style="swimlane;fontStyle=1;align=center;verticalAlign=top;childLayout=stackLayout;horizontal=1;startSize=26;horizontalStack=0;resizeParent=1;resizeParentMax=0;resizeLast=0;collapsible=1;marginBottom=0;whiteSpace=wrap;html=1;" parent="1" vertex="1">
          <mxGeometry x="320" y="610" width="160" height="34" as="geometry" />
        </mxCell>
        <mxCell id="cxhVmi1dmJNvSdozs-qM-28" value="" style="line;strokeWidth=1;fillColor=none;align=left;verticalAlign=middle;spacingTop=-1;spacingLeft=3;spacingRight=3;rotatable=0;labelPosition=right;points=[];portConstraint=eastwest;strokeColor=inherit;" parent="cxhVmi1dmJNvSdozs-qM-26" vertex="1">
          <mxGeometry y="26" width="160" height="8" as="geometry" />
        </mxCell>
        <mxCell id="cxhVmi1dmJNvSdozs-qM-30" value="Horse" style="swimlane;fontStyle=1;align=center;verticalAlign=top;childLayout=stackLayout;horizontal=1;startSize=26;horizontalStack=0;resizeParent=1;resizeParentMax=0;resizeLast=0;collapsible=1;marginBottom=0;whiteSpace=wrap;html=1;" parent="1" vertex="1">
          <mxGeometry x="220" y="568" width="160" height="34" as="geometry" />
        </mxCell>
        <mxCell id="cxhVmi1dmJNvSdozs-qM-32" value="" style="line;strokeWidth=1;fillColor=none;align=left;verticalAlign=middle;spacingTop=-1;spacingLeft=3;spacingRight=3;rotatable=0;labelPosition=right;points=[];portConstraint=eastwest;strokeColor=inherit;" parent="cxhVmi1dmJNvSdozs-qM-30" vertex="1">
          <mxGeometry y="26" width="160" height="8" as="geometry" />
        </mxCell>
        <mxCell id="cxhVmi1dmJNvSdozs-qM-34" value="Extends" style="endArrow=block;endSize=16;endFill=0;html=1;rounded=0;exitX=0.5;exitY=0;exitDx=0;exitDy=0;entryX=0.25;entryY=1;entryDx=0;entryDy=0;" parent="1" source="cxhVmi1dmJNvSdozs-qM-10" target="cxhVmi1dmJNvSdozs-qM-44" edge="1">
          <mxGeometry width="160" relative="1" as="geometry">
            <mxPoint x="330" y="410" as="sourcePoint" />
            <mxPoint x="125" y="1040" as="targetPoint" />
          </mxGeometry>
        </mxCell>
        <mxCell id="cxhVmi1dmJNvSdozs-qM-36" value="Extends" style="endArrow=block;endSize=16;endFill=0;html=1;rounded=0;exitX=0.5;exitY=0;exitDx=0;exitDy=0;entryX=0.456;entryY=0.625;entryDx=0;entryDy=0;entryPerimeter=0;" parent="1" source="cxhVmi1dmJNvSdozs-qM-14" target="cxhVmi1dmJNvSdozs-qM-46" edge="1">
          <mxGeometry width="160" relative="1" as="geometry">
            <mxPoint x="330" y="410" as="sourcePoint" />
            <mxPoint x="160" y="1040" as="targetPoint" />
          </mxGeometry>
        </mxCell>
        <mxCell id="cxhVmi1dmJNvSdozs-qM-37" value="Extends" style="endArrow=block;endSize=16;endFill=0;html=1;rounded=0;exitX=0.5;exitY=0;exitDx=0;exitDy=0;entryX=0.75;entryY=1;entryDx=0;entryDy=0;" parent="1" source="cxhVmi1dmJNvSdozs-qM-18" target="cxhVmi1dmJNvSdozs-qM-44" edge="1">
          <mxGeometry width="160" relative="1" as="geometry">
            <mxPoint x="330" y="410" as="sourcePoint" />
            <mxPoint x="195" y="1040" as="targetPoint" />
          </mxGeometry>
        </mxCell>
        <mxCell id="cxhVmi1dmJNvSdozs-qM-38" value="Extends" style="endArrow=block;endSize=16;endFill=0;html=1;rounded=0;exitX=0.5;exitY=0;exitDx=0;exitDy=0;entryX=0.25;entryY=1;entryDx=0;entryDy=0;" parent="1" source="cxhVmi1dmJNvSdozs-qM-30" target="cxhVmi1dmJNvSdozs-qM-56" edge="1">
          <mxGeometry width="160" relative="1" as="geometry">
            <mxPoint x="330" y="410" as="sourcePoint" />
            <mxPoint x="490" y="1070" as="targetPoint" />
          </mxGeometry>
        </mxCell>
        <mxCell id="cxhVmi1dmJNvSdozs-qM-39" value="Extends" style="endArrow=block;endSize=16;endFill=0;html=1;rounded=0;exitX=0.5;exitY=0;exitDx=0;exitDy=0;" parent="1" source="cxhVmi1dmJNvSdozs-qM-26" target="cxhVmi1dmJNvSdozs-qM-58" edge="1">
          <mxGeometry width="160" relative="1" as="geometry">
            <mxPoint x="330" y="410" as="sourcePoint" />
            <mxPoint x="530" y="1071" as="targetPoint" />
          </mxGeometry>
        </mxCell>
        <mxCell id="cxhVmi1dmJNvSdozs-qM-40" value="Extends" style="endArrow=block;endSize=16;endFill=0;html=1;rounded=0;exitX=0.5;exitY=0;exitDx=0;exitDy=0;entryX=0.75;entryY=1;entryDx=0;entryDy=0;" parent="1" source="cxhVmi1dmJNvSdozs-qM-22" target="cxhVmi1dmJNvSdozs-qM-56" edge="1">
          <mxGeometry width="160" relative="1" as="geometry">
            <mxPoint x="330" y="410" as="sourcePoint" />
            <mxPoint x="565" y="1071" as="targetPoint" />
          </mxGeometry>
        </mxCell>
        <mxCell id="cxhVmi1dmJNvSdozs-qM-42" value="Extends" style="endArrow=block;endSize=16;endFill=0;html=1;rounded=0;exitX=0.5;exitY=0;exitDx=0;exitDy=0;entryX=0.319;entryY=1.02;entryDx=0;entryDy=0;entryPerimeter=0;" parent="1" source="cxhVmi1dmJNvSdozs-qM-44" target="cxhVmi1dmJNvSdozs-qM-55" edge="1">
          <mxGeometry width="160" relative="1" as="geometry">
            <mxPoint x="160" y="1000" as="sourcePoint" />
            <mxPoint x="274" y="980" as="targetPoint" />
          </mxGeometry>
        </mxCell>
        <mxCell id="cxhVmi1dmJNvSdozs-qM-43" value="Extends" style="endArrow=block;endSize=16;endFill=0;html=1;rounded=0;exitX=0.5;exitY=0;exitDx=0;exitDy=0;entryX=0.714;entryY=1;entryDx=0;entryDy=0;entryPerimeter=0;" parent="1" source="cxhVmi1dmJNvSdozs-qM-56" target="cxhVmi1dmJNvSdozs-qM-55" edge="1">
          <mxGeometry width="160" relative="1" as="geometry">
            <mxPoint x="530" y="1030" as="sourcePoint" />
            <mxPoint x="414" y="980" as="targetPoint" />
          </mxGeometry>
        </mxCell>
        <mxCell id="cxhVmi1dmJNvSdozs-qM-44" value="Pet" style="swimlane;fontStyle=1;align=center;verticalAlign=top;childLayout=stackLayout;horizontal=1;startSize=26;horizontalStack=0;resizeParent=1;resizeParentMax=0;resizeLast=0;collapsible=1;marginBottom=0;whiteSpace=wrap;html=1;" parent="1" vertex="1">
          <mxGeometry x="-90" y="490" width="160" height="34" as="geometry" />
        </mxCell>
        <mxCell id="cxhVmi1dmJNvSdozs-qM-46" value="" style="line;strokeWidth=1;fillColor=none;align=left;verticalAlign=middle;spacingTop=-1;spacingLeft=3;spacingRight=3;rotatable=0;labelPosition=right;points=[];portConstraint=eastwest;strokeColor=inherit;" parent="cxhVmi1dmJNvSdozs-qM-44" vertex="1">
          <mxGeometry y="26" width="160" height="8" as="geometry" />
        </mxCell>
        <mxCell id="cxhVmi1dmJNvSdozs-qM-52" value="abstract class&lt;br&gt;Animal" style="swimlane;fontStyle=1;align=center;verticalAlign=top;childLayout=stackLayout;horizontal=1;startSize=40;horizontalStack=0;resizeParent=1;resizeParentMax=0;resizeLast=0;collapsible=1;marginBottom=0;whiteSpace=wrap;html=1;" parent="1" vertex="1">
          <mxGeometry x="-30" y="180" width="210" height="220" as="geometry" />
        </mxCell>
        <mxCell id="cxhVmi1dmJNvSdozs-qM-53" value="- id: int&lt;br&gt;- dayOfBirth: datetime&lt;br&gt;- nameAnimal: String&lt;br&gt;- commands: CommandPet" style="text;strokeColor=none;fillColor=none;align=left;verticalAlign=top;spacingLeft=4;spacingRight=4;overflow=hidden;rotatable=0;points=[[0,0.5],[1,0.5]];portConstraint=eastwest;whiteSpace=wrap;html=1;" parent="cxhVmi1dmJNvSdozs-qM-52" vertex="1">
          <mxGeometry y="40" width="210" height="70" as="geometry" />
        </mxCell>
        <mxCell id="cxhVmi1dmJNvSdozs-qM-54" value="" style="line;strokeWidth=1;fillColor=none;align=left;verticalAlign=middle;spacingTop=-1;spacingLeft=3;spacingRight=3;rotatable=0;labelPosition=right;points=[];portConstraint=eastwest;strokeColor=inherit;" parent="cxhVmi1dmJNvSdozs-qM-52" vertex="1">
          <mxGeometry y="110" width="210" height="8" as="geometry" />
        </mxCell>
        <mxCell id="cxhVmi1dmJNvSdozs-qM-55" value="+ animal (int, date time)&lt;br&gt;+ setDayOfBirth(datetime): void&lt;br&gt;+ getDayOfBirth(): datetime&lt;br&gt;+ setName(String): void&lt;br&gt;+ getName(): String&lt;br&gt;+ addNewCommand (String): void" style="text;strokeColor=none;fillColor=none;align=left;verticalAlign=top;spacingLeft=4;spacingRight=4;overflow=hidden;rotatable=0;points=[[0,0.5],[1,0.5]];portConstraint=eastwest;whiteSpace=wrap;html=1;" parent="cxhVmi1dmJNvSdozs-qM-52" vertex="1">
          <mxGeometry y="118" width="210" height="102" as="geometry" />
        </mxCell>
        <mxCell id="cxhVmi1dmJNvSdozs-qM-56" value="BaggageAnimal" style="swimlane;fontStyle=1;align=center;verticalAlign=top;childLayout=stackLayout;horizontal=1;startSize=26;horizontalStack=0;resizeParent=1;resizeParentMax=0;resizeLast=0;collapsible=1;marginBottom=0;whiteSpace=wrap;html=1;" parent="1" vertex="1">
          <mxGeometry x="290" y="500" width="160" height="34" as="geometry" />
        </mxCell>
        <mxCell id="cxhVmi1dmJNvSdozs-qM-58" value="" style="line;strokeWidth=1;fillColor=none;align=left;verticalAlign=middle;spacingTop=-1;spacingLeft=3;spacingRight=3;rotatable=0;labelPosition=right;points=[];portConstraint=eastwest;strokeColor=inherit;" parent="cxhVmi1dmJNvSdozs-qM-56" vertex="1">
          <mxGeometry y="26" width="160" height="8" as="geometry" />
        </mxCell>
        <mxCell id="cxhVmi1dmJNvSdozs-qM-60" value="CommandPet" style="swimlane;fontStyle=1;align=center;verticalAlign=top;childLayout=stackLayout;horizontal=1;startSize=26;horizontalStack=0;resizeParent=1;resizeParentMax=0;resizeLast=0;collapsible=1;marginBottom=0;whiteSpace=wrap;html=1;" parent="1" vertex="1">
          <mxGeometry x="-355" y="200" width="190" height="110" as="geometry" />
        </mxCell>
        <mxCell id="cxhVmi1dmJNvSdozs-qM-61" value="- command: ArrayList" style="text;strokeColor=none;fillColor=none;align=left;verticalAlign=top;spacingLeft=4;spacingRight=4;overflow=hidden;rotatable=0;points=[[0,0.5],[1,0.5]];portConstraint=eastwest;whiteSpace=wrap;html=1;" parent="cxhVmi1dmJNvSdozs-qM-60" vertex="1">
          <mxGeometry y="26" width="190" height="26" as="geometry" />
        </mxCell>
        <mxCell id="cxhVmi1dmJNvSdozs-qM-62" value="" style="line;strokeWidth=1;fillColor=none;align=left;verticalAlign=middle;spacingTop=-1;spacingLeft=3;spacingRight=3;rotatable=0;labelPosition=right;points=[];portConstraint=eastwest;strokeColor=inherit;" parent="cxhVmi1dmJNvSdozs-qM-60" vertex="1">
          <mxGeometry y="52" width="190" height="8" as="geometry" />
        </mxCell>
        <mxCell id="cxhVmi1dmJNvSdozs-qM-63" value="+ CommandPet(): void&lt;br&gt;+ AddCommand(Command): void" style="text;strokeColor=none;fillColor=none;align=left;verticalAlign=top;spacingLeft=4;spacingRight=4;overflow=hidden;rotatable=0;points=[[0,0.5],[1,0.5]];portConstraint=eastwest;whiteSpace=wrap;html=1;" parent="cxhVmi1dmJNvSdozs-qM-60" vertex="1">
          <mxGeometry y="60" width="190" height="50" as="geometry" />
        </mxCell>
        <mxCell id="cxhVmi1dmJNvSdozs-qM-67" value="Command" style="swimlane;fontStyle=1;align=center;verticalAlign=top;childLayout=stackLayout;horizontal=1;startSize=26;horizontalStack=0;resizeParent=1;resizeParentMax=0;resizeLast=0;collapsible=1;marginBottom=0;whiteSpace=wrap;html=1;" parent="1" vertex="1">
          <mxGeometry x="-340" y="20" width="160" height="118" as="geometry" />
        </mxCell>
        <mxCell id="cxhVmi1dmJNvSdozs-qM-68" value="+ GO&lt;br&gt;+ STOP&lt;br&gt;+ LIE DOWN&lt;br&gt;+ JUMP&lt;br&gt;+ VOICE" style="text;strokeColor=none;fillColor=none;align=left;verticalAlign=top;spacingLeft=4;spacingRight=4;overflow=hidden;rotatable=0;points=[[0,0.5],[1,0.5]];portConstraint=eastwest;whiteSpace=wrap;html=1;" parent="cxhVmi1dmJNvSdozs-qM-67" vertex="1">
          <mxGeometry y="26" width="160" height="84" as="geometry" />
        </mxCell>
        <mxCell id="cxhVmi1dmJNvSdozs-qM-69" value="" style="line;strokeWidth=1;fillColor=none;align=left;verticalAlign=middle;spacingTop=-1;spacingLeft=3;spacingRight=3;rotatable=0;labelPosition=right;points=[];portConstraint=eastwest;strokeColor=inherit;" parent="cxhVmi1dmJNvSdozs-qM-67" vertex="1">
          <mxGeometry y="110" width="160" height="8" as="geometry" />
        </mxCell>
        <mxCell id="cxhVmi1dmJNvSdozs-qM-71" value="Relation" style="endArrow=open;html=1;endSize=12;startArrow=diamondThin;startSize=14;startFill=0;edgeStyle=orthogonalEdgeStyle;rounded=0;exitX=0.5;exitY=0;exitDx=0;exitDy=0;entryX=0.5;entryY=1;entryDx=0;entryDy=0;" parent="1" source="cxhVmi1dmJNvSdozs-qM-60" target="cxhVmi1dmJNvSdozs-qM-67" edge="1">
          <mxGeometry relative="1" as="geometry">
            <mxPoint x="140" y="690" as="sourcePoint" />
            <mxPoint x="300" y="690" as="targetPoint" />
          </mxGeometry>
        </mxCell>
        <mxCell id="cxhVmi1dmJNvSdozs-qM-72" value="0..n" style="edgeLabel;resizable=0;html=1;align=left;verticalAlign=top;" parent="cxhVmi1dmJNvSdozs-qM-71" connectable="0" vertex="1">
          <mxGeometry x="-1" relative="1" as="geometry">
            <mxPoint x="15" y="-30" as="offset" />
          </mxGeometry>
        </mxCell>
        <mxCell id="cxhVmi1dmJNvSdozs-qM-73" value="1" style="edgeLabel;resizable=0;html=1;align=right;verticalAlign=top;" parent="cxhVmi1dmJNvSdozs-qM-71" connectable="0" vertex="1">
          <mxGeometry x="1" relative="1" as="geometry" />
        </mxCell>
        <mxCell id="cxhVmi1dmJNvSdozs-qM-74" value="Relation" style="endArrow=open;html=1;endSize=12;startArrow=diamondThin;startSize=14;startFill=0;edgeStyle=orthogonalEdgeStyle;rounded=0;exitX=-0.014;exitY=0.829;exitDx=0;exitDy=0;exitPerimeter=0;entryX=0.995;entryY=0.127;entryDx=0;entryDy=0;entryPerimeter=0;" parent="1" source="cxhVmi1dmJNvSdozs-qM-53" target="cxhVmi1dmJNvSdozs-qM-60" edge="1">
          <mxGeometry relative="1" as="geometry">
            <mxPoint x="140" y="330" as="sourcePoint" />
            <mxPoint x="300" y="330" as="targetPoint" />
          </mxGeometry>
        </mxCell>
        <mxCell id="cxhVmi1dmJNvSdozs-qM-75" value="0..n" style="edgeLabel;resizable=0;html=1;align=left;verticalAlign=top;" parent="cxhVmi1dmJNvSdozs-qM-74" connectable="0" vertex="1">
          <mxGeometry x="-1" relative="1" as="geometry" />
        </mxCell>
        <mxCell id="cxhVmi1dmJNvSdozs-qM-76" value="1" style="edgeLabel;resizable=0;html=1;align=right;verticalAlign=top;" parent="cxhVmi1dmJNvSdozs-qM-74" connectable="0" vertex="1">
          <mxGeometry x="1" relative="1" as="geometry" />
        </mxCell>
      </root>
    </mxGraphModel>
  </diagram>
</mxfile>
